<svg width="375" height="601" viewBox="0 0 375 601" fill="none" xmlns="http://www.w3.org/2000/svg">
<g clip-path="url(#clip0_109_331)">
<rect width="375" height="600" transform="translate(0 0.887207)" fill="white"/>
<g clip-path="url(#clip1_109_331)">
<path d="M461.023 614.745C468.012 624.169 477.558 630.279 489.674 633.116C501.777 635.939 518.325 637.357 539.292 637.357L540 729.887C494.801 729.887 459.161 727.647 433.08 723.167C406.986 718.7 384.039 705.393 364.252 683.258C344.439 661.123 333.844 625.587 332.454 576.598V445.922C331.982 422.382 324.77 406.953 310.792 399.65C296.814 392.36 274.457 388.702 243.695 388.702H243L243.695 364.685L243 341.37H243.695C264.662 341.37 281.197 340.084 293.313 337.486C305.416 334.902 314.975 329.361 321.964 320.892C328.953 312.422 332.454 299.698 332.454 282.745V152.771C333.844 104.273 344.439 68.9493 364.252 46.801C384.039 24.6659 406.986 11.4776 433.08 7.24939C459.161 3.00793 494.801 0.887207 540 0.887207L539.292 92.0122C518.338 92.0122 501.79 93.4172 489.674 96.2537C477.558 99.0769 468.012 105.32 461.023 114.969C454.034 124.632 450.546 139.119 450.546 158.417V287.689C448.684 323.012 434.47 348.686 407.917 364.685C434.483 380.696 448.684 406.609 450.546 442.396V571.668C450.546 590.98 454.034 605.348 461.023 614.758" fill="black"/>
</g>
<g clip-path="url(#clip2_109_331)">
<path d="M358.023 614.745C365.012 624.169 374.558 630.279 386.674 633.116C398.777 635.939 415.325 637.357 436.292 637.357L437 729.887C391.801 729.887 356.161 727.647 330.08 723.167C303.986 718.7 281.039 705.393 261.252 683.258C241.439 661.123 230.844 625.587 229.454 576.598V445.922C228.982 422.382 221.77 406.953 207.792 399.65C193.814 392.36 171.457 388.702 140.695 388.702H140L140.695 364.685L140 341.37H140.695C161.662 341.37 178.197 340.084 190.313 337.486C202.416 334.902 211.975 329.361 218.964 320.892C225.953 312.422 229.454 299.698 229.454 282.745V152.771C230.844 104.273 241.439 68.9493 261.252 46.801C281.039 24.6659 303.986 11.4776 330.08 7.24939C356.161 3.00793 391.801 0.887207 437 0.887207L436.292 92.0122C415.338 92.0122 398.79 93.4172 386.674 96.2537C374.558 99.0769 365.012 105.32 358.023 114.969C351.034 124.632 347.546 139.119 347.546 158.417V287.689C345.684 323.012 331.47 348.686 304.917 364.685C331.483 380.696 345.684 406.609 347.546 442.396V571.668C347.546 590.98 351.034 605.348 358.023 614.758" fill="black"/>
</g>
<g clip-path="url(#clip3_109_331)">
<path d="M285.023 614.745C292.012 624.169 301.558 630.279 313.674 633.116C325.777 635.939 342.325 637.357 363.292 637.357L364 729.887C318.801 729.887 283.161 727.647 257.08 723.167C230.986 718.7 208.039 705.393 188.252 683.258C168.439 661.123 157.844 625.587 156.454 576.598V445.922C155.982 422.382 148.77 406.953 134.792 399.65C120.814 392.36 98.4571 388.702 67.695 388.702H67L67.695 364.685L67 341.37H67.695C88.662 341.37 105.197 340.084 117.313 337.486C129.416 334.902 138.975 329.361 145.964 320.892C152.953 312.422 156.454 299.698 156.454 282.745V152.771C157.844 104.273 168.439 68.9493 188.252 46.801C208.039 24.6659 230.986 11.4776 257.08 7.24939C283.161 3.00793 318.801 0.887207 364 0.887207L363.292 92.0122C342.338 92.0122 325.79 93.4172 313.674 96.2537C301.558 99.0769 292.012 105.32 285.023 114.969C278.034 124.632 274.546 139.119 274.546 158.417V287.689C272.684 323.012 258.47 348.686 231.917 364.685C258.483 380.696 272.684 406.609 274.546 442.396V571.668C274.546 590.98 278.034 605.348 285.023 614.758" fill="black"/>
</g>
<g clip-path="url(#clip4_109_331)">
<path d="M98.4872 538.125C103.311 544.653 109.9 548.886 118.263 550.851C126.617 552.806 138.039 553.789 152.511 553.789L153 617.887C121.802 617.887 97.202 616.335 79.2 613.232C61.189 610.138 45.3501 600.919 31.6925 585.586C18.0168 570.252 10.7038 545.635 9.74437 511.699V421.176C9.41854 404.869 4.44062 394.181 -5.2075 389.122C-14.8556 384.072 -30.2872 381.538 -51.5203 381.538H-52L-51.5203 364.901L-52 348.75H-51.5203C-37.0481 348.75 -25.6351 347.859 -17.2722 346.059C-8.91832 344.269 -2.32031 340.431 2.50375 334.564C7.32782 328.697 9.74437 319.882 9.74437 308.139V218.102C10.7038 184.505 18.0168 160.036 31.6925 144.693C45.3501 129.359 61.189 120.223 79.2 117.294C97.202 114.356 121.802 112.887 153 112.887L152.511 176.012C138.048 176.012 126.626 176.985 118.263 178.95C109.9 180.906 103.311 185.231 98.4872 191.915C93.6631 198.609 91.2556 208.644 91.2556 222.013V311.563C89.9704 336.033 80.1594 353.818 61.8316 364.901C80.1684 375.992 89.9704 393.943 91.2556 418.734V508.284C91.2556 521.662 93.6631 531.615 98.4872 538.134" fill="black"/>
</g>
</g>
<defs>
<clipPath id="clip0_109_331">
<rect width="375" height="600" fill="white" transform="translate(0 0.887207)"/>
</clipPath>
<clipPath id="clip1_109_331">
<rect width="154" height="729" fill="white" transform="translate(345 0.887207)"/>
</clipPath>
<clipPath id="clip2_109_331">
<rect width="154" height="729" fill="white" transform="translate(191 0.887207)"/>
</clipPath>
<clipPath id="clip3_109_331">
<rect width="154" height="729" fill="white" transform="translate(37 0.887207)"/>
</clipPath>
<clipPath id="clip4_109_331">
<rect width="154" height="729" fill="white" transform="translate(-117 0.887207)"/>
</clipPath>
</defs>
</svg>
