<svg width="1920" height="800" viewBox="0 0 1920 800" fill="none" xmlns="http://www.w3.org/2000/svg">
<g clip-path="url(#clip0_109_19)">
<g clip-path="url(#clip1_109_19)">
<path d="M774.013 768.796C782.766 780.598 794.721 788.251 809.895 791.803C825.053 795.339 845.778 797.115 872.037 797.115L872.924 913C816.317 913 771.681 910.195 739.017 904.584C706.337 898.99 677.598 882.323 652.817 854.601C628.003 826.879 614.734 782.375 612.993 721.021V557.362C612.402 527.88 603.37 508.558 585.864 499.411C568.358 490.281 540.358 485.699 501.831 485.699H500.961L501.831 455.62L500.961 426.421H501.831C528.09 426.421 548.799 424.811 563.973 421.557C579.131 418.32 591.102 411.381 599.855 400.774C608.608 390.166 612.993 374.23 612.993 352.999V190.219C614.734 129.48 628.003 85.241 652.817 57.5024C677.598 29.7804 706.337 13.2634 739.017 7.968C771.681 2.656 816.317 0 872.924 0L872.037 114.125C845.794 114.125 825.07 115.885 809.895 119.437C794.721 122.973 782.766 130.791 774.013 142.876C765.26 154.978 760.892 173.121 760.892 197.291V359.191C758.56 403.43 740.758 435.584 707.503 455.62C740.774 475.673 758.56 508.126 760.892 552.946V714.846C760.892 739.032 765.26 757.026 774.013 768.812" fill="black"/>
</g>
<g clip-path="url(#clip2_109_19)">
<path d="M1105.22 774.953C1114.14 786.988 1126.32 794.792 1141.78 798.414C1157.23 802.02 1178.34 803.831 1205.1 803.831L1206 922C1148.33 922 1102.85 919.139 1069.56 913.418C1036.27 907.713 1006.98 890.718 981.733 862.45C956.45 834.181 942.929 788.799 941.156 726.236V559.35C940.553 529.287 931.35 509.584 913.513 500.257C895.676 490.947 867.146 486.275 827.891 486.275H827.004L827.891 455.603L827.004 425.828H827.891C854.647 425.828 875.747 424.186 891.208 420.868C906.652 417.567 918.851 410.492 927.769 399.675C936.688 388.859 941.156 372.608 941.156 350.958V184.97C942.929 123.033 956.45 77.9215 981.733 49.6361C1006.98 21.3675 1036.27 4.52489 1069.56 -0.874908C1102.85 -6.29164 1148.33 -9 1206 -9L1205.1 107.375C1178.36 107.375 1157.24 109.169 1141.78 112.792C1126.32 116.397 1114.14 124.37 1105.22 136.693C1096.3 149.033 1091.85 167.535 1091.85 192.181V357.272C1089.48 402.384 1071.34 435.172 1037.45 455.603C1071.35 476.051 1089.48 509.144 1091.85 554.847V719.939C1091.85 744.602 1096.3 762.951 1105.22 774.97" fill="black"/>
</g>
<g clip-path="url(#clip3_109_19)">
<path d="M1324.02 952.145C1337.9 970.877 1356.86 983.022 1380.93 988.66C1404.96 994.272 1437.83 997.091 1479.47 997.091L1480.88 1181.01C1391.11 1181.01 1320.32 1176.56 1268.52 1167.65C1216.7 1158.78 1171.12 1132.32 1131.82 1088.33C1092.47 1044.33 1071.43 973.696 1068.67 876.321V616.576C1067.73 569.786 1053.41 539.119 1025.64 524.602C997.882 510.112 953.478 502.841 892.38 502.841H891L892.38 455.102L891 408.759H892.38C934.024 408.759 966.864 406.204 990.928 401.04C1014.97 395.902 1033.95 384.89 1047.83 368.055C1061.71 351.22 1068.67 325.928 1068.67 292.231V33.8827C1071.43 -62.5172 1092.47 -132.729 1131.82 -176.753C1171.12 -220.751 1216.7 -246.965 1268.52 -255.37C1320.32 -263.8 1391.11 -268.016 1480.88 -268.016L1479.47 -86.8872C1437.86 -86.8872 1404.99 -84.0945 1380.93 -78.4565C1356.86 -72.8448 1337.9 -60.4359 1324.02 -41.256C1310.14 -22.0498 1303.21 6.74634 1303.21 45.106V302.058C1299.52 372.27 1271.28 423.302 1218.55 455.102C1271.31 486.928 1299.52 538.434 1303.21 609.568V866.52C1303.21 904.906 1310.14 933.465 1324.02 952.171" fill="black"/>
</g>
<rect width="167" height="913" transform="translate(1753)" fill="black"/>
<g clip-path="url(#clip4_109_19)">
<path d="M645.017 768.796C653.77 780.598 665.725 788.251 680.899 791.803C696.057 795.339 716.782 797.115 743.041 797.115L743.928 913C687.32 913 642.685 910.195 610.021 904.584C577.341 898.99 548.602 882.323 523.821 854.601C499.007 826.879 485.738 782.375 483.997 721.021V557.362C483.406 527.88 474.374 508.558 456.868 499.411C439.362 490.281 411.362 485.699 372.835 485.699H371.965L372.835 455.62L371.965 426.421H372.835C399.094 426.421 419.803 424.811 434.977 421.557C450.135 418.32 462.106 411.381 470.859 400.774C479.612 390.166 483.997 374.23 483.997 352.999V190.219C485.738 129.48 499.007 85.241 523.821 57.5024C548.602 29.7804 577.341 13.2634 610.021 7.968C642.685 2.656 687.32 0 743.928 0L743.041 114.125C716.798 114.125 696.073 115.885 680.899 119.437C665.725 122.973 653.77 130.791 645.017 142.876C636.264 154.978 631.896 173.121 631.896 197.291V359.191C629.564 403.43 611.762 435.584 578.507 455.62C611.778 475.673 629.564 508.126 631.896 552.946V714.846C631.896 739.032 636.264 757.026 645.017 768.812" fill="black"/>
</g>
<g clip-path="url(#clip5_109_19)">
<path d="M553.591 768.796C562.344 780.598 574.299 788.251 589.474 791.803C604.631 795.339 625.356 797.115 651.615 797.115L652.502 913C595.895 913 551.259 910.195 518.595 904.584C485.915 898.99 457.176 882.323 432.395 854.601C407.581 826.879 394.312 782.375 392.571 721.021V557.362C391.98 527.88 382.948 508.558 365.442 499.411C347.936 490.281 319.936 485.699 281.409 485.699H280.539L281.409 455.62L280.539 426.421H281.409C307.669 426.421 328.377 424.811 343.551 421.557C358.709 418.32 370.681 411.381 379.434 400.774C388.187 390.166 392.571 374.23 392.571 352.999V190.219C394.312 129.48 407.581 85.241 432.395 57.5024C457.176 29.7804 485.915 13.2634 518.595 7.968C551.259 2.656 595.895 0 652.502 0L651.615 114.125C625.373 114.125 604.648 115.885 589.474 119.437C574.299 122.973 562.344 130.791 553.591 142.876C544.838 154.978 540.47 173.121 540.47 197.291V359.191C538.138 403.43 520.336 435.584 487.081 455.62C520.353 475.673 538.138 508.126 540.47 552.946V714.846C540.47 739.032 544.838 757.026 553.591 768.812" fill="black"/>
</g>
<g clip-path="url(#clip6_109_19)">
<path d="M238.568 672.837C244.61 681.013 252.862 686.314 263.335 688.775C273.798 691.224 288.103 692.455 306.228 692.455L306.84 772.731C267.767 772.731 236.958 770.788 214.413 766.901C191.856 763.026 172.019 751.481 154.914 732.277C137.787 713.073 128.628 682.243 127.426 639.742V526.37C127.018 505.947 120.784 492.562 108.701 486.226C96.6173 479.901 77.2908 476.727 50.6984 476.727H50.0977L50.6984 455.891L50.0977 435.663H50.6984C68.8234 435.663 83.1171 434.548 93.5908 432.294C104.053 430.052 112.317 425.245 118.358 417.897C124.4 410.549 127.426 399.51 127.426 384.802V272.04C128.628 229.964 137.787 199.318 154.914 180.103C172.019 160.899 191.856 149.457 214.413 145.789C236.958 142.109 267.767 140.269 306.84 140.269L306.228 219.327C288.114 219.327 273.809 220.546 263.335 223.007C252.862 225.456 244.61 230.872 238.568 239.244C232.526 247.627 229.511 260.195 229.511 276.938V389.091C227.901 419.737 215.614 442.011 192.66 455.891C215.625 469.782 227.901 492.263 229.511 523.311V635.464C229.511 652.219 232.526 664.684 238.568 672.848" fill="black"/>
</g>
</g>
<defs>
<clipPath id="clip0_109_19">
<rect width="1920" height="800" fill="white"/>
</clipPath>
<clipPath id="clip1_109_19">
<rect width="192.87" height="913" fill="white" transform="translate(628.707)"/>
</clipPath>
<clipPath id="clip2_109_19">
<rect width="192.87" height="913" fill="white" transform="translate(897.973)"/>
</clipPath>
<clipPath id="clip3_109_19">
<rect width="192.87" height="913" fill="white" transform="translate(1090)"/>
</clipPath>
<clipPath id="clip4_109_19">
<rect width="192.87" height="913" fill="white" transform="translate(435.836)"/>
</clipPath>
<clipPath id="clip5_109_19">
<rect width="192.87" height="913" fill="white" transform="translate(242.969)"/>
</clipPath>
<clipPath id="clip6_109_19">
<rect width="192.87" height="913" fill="white" transform="translate(50.0977)"/>
</clipPath>
</defs>
</svg>
