<svg width="561" height="266" viewBox="0 0 561 266" fill="none" xmlns="http://www.w3.org/2000/svg">
<path d="M255.554 194.443V185.09H255.38L182.408 258.089L185.642 264.375L255.554 194.443Z" fill="#293133"/>
<path d="M250.007 185.09H240.484L211.484 214.103L202.434 232.678L250.007 185.09Z" fill="#293133"/>
<path d="M194.132 231.461L177.345 248.254L180.579 254.54L197.284 237.834L194.132 231.461Z" fill="#293133"/>
<path d="M167.372 252.855V243.333L145.029 265.679H154.552L167.372 252.855Z" fill="#293133"/>
<path d="M167.372 258.236L159.924 265.681H167.372V258.236Z" fill="#293133"/>
<path d="M264.589 190.778V200.304L279.799 185.09H270.275L264.589 190.778Z" fill="#293133"/>
<path d="M299.656 209.925H291.48V208.578L264.589 235.476V245.002L299.656 209.925Z" fill="#293133"/>
<path d="M264.589 220.578V230.099L291.48 203.201V193.68L264.589 220.578Z" fill="#293133"/>
<path d="M264.589 215.204L291.48 188.306V185.09H285.171L264.589 205.678V215.204Z" fill="#293133"/>
<path d="M291.48 238.371L264.589 265.269V265.679H273.702L291.48 247.897V238.371Z" fill="#293133"/>
<path d="M160.643 185.09H151.125L140.481 195.741V205.263L160.643 185.09Z" fill="#293133"/>
<path d="M255.553 229.616L228.769 256.408V265.678H229.02L255.553 239.138V229.616Z" fill="#293133"/>
<path d="M140.481 190.368L145.752 185.09H140.481V190.368Z" fill="#293133"/>
<path d="M264.589 185.09V185.407L264.906 185.09H264.589Z" fill="#293133"/>
<path d="M388.045 231.167L361.266 257.958V265.679H363.067L388.045 240.693V231.167Z" fill="#293133"/>
<path d="M216.591 203.621L235.116 185.09H225.617L216.591 203.621Z" fill="#293133"/>
<path d="M182.489 207.938L179.333 201.569L140.477 240.432V249.958L182.489 207.938Z" fill="#293133"/>
<path d="M172.623 188.007L171.18 185.09H166.02L140.481 210.637V220.163L172.623 188.007Z" fill="#293133"/>
<path d="M167.372 237.961V228.87L170.456 234.871L187.422 217.905L184.266 211.536L140.481 255.333V264.859L167.372 237.961Z" fill="#293133"/>
<path d="M177.556 197.972L174.404 191.604L140.477 225.536V235.058L177.556 197.972Z" fill="#293133"/>
<path d="M175.52 244.704L192.351 227.867L189.199 221.494L172.281 238.417L175.52 244.704Z" fill="#293133"/>
<path d="M222.268 242.638L228.77 229.302V236.134L255.554 209.342V199.816L189.716 265.678H199.234L222.268 242.638Z" fill="#293133"/>
<path d="M355.826 228.229C355.141 226.293 354.291 224.448 353.152 222.778C352.964 222.503 352.732 222.266 352.534 222L332.657 241.888C332.136 243.853 331.238 245.331 329.858 246.19C329.124 246.649 328.221 247.001 327.237 247.305L308.861 265.687H318.384L355.826 228.229Z" fill="#293133"/>
<path d="M319.678 227.67H319.784C322.352 227.67 324.452 227.824 326.136 228.119L341.08 213.17C338.817 212.214 336.36 211.505 333.758 210.974L317.067 227.67H319.673H319.678Z" fill="#293133"/>
<path d="M306.095 248.177C303.61 248.163 300.438 248.153 296.601 248.148L279.075 265.68H288.593L306.091 248.177H306.095Z" fill="#293133"/>
<path d="M357.221 241.733C357.356 240.628 357.452 239.512 357.452 238.349V237.914C357.452 236.007 357.245 234.216 356.946 232.487L323.785 265.662C327.661 265.619 331.257 265.165 334.607 264.359L357.221 241.738V241.733Z" fill="#293133"/>
<path d="M388.045 260.962L383.334 265.679H388.045V260.962Z" fill="#293133"/>
<path d="M353.152 252.609C353.9 251.527 354.542 250.393 355.097 249.224L343.151 261.174C347.321 258.987 350.69 256.162 353.152 252.609Z" fill="#293133"/>
<path d="M388.045 255.589V246.067L368.438 265.68H377.962L388.045 255.589Z" fill="#293133"/>
<path d="M361.266 192.989L369.158 185.09H361.266V192.989Z" fill="#293133"/>
<path d="M388.045 216.271L361.266 243.059V252.585L388.045 225.793V216.271Z" fill="#293133"/>
<path d="M320.957 248.205C320.556 248.215 320.204 248.253 319.784 248.253H316.516C315.532 248.253 313.813 248.244 311.419 248.22L293.965 265.679H303.489L320.957 248.205Z" fill="#293133"/>
<path d="M291.48 227.67H296.804L314.552 209.921H305.029L264.589 250.372V259.894L291.48 232.996V227.67Z" fill="#293133"/>
<path d="M344.671 214.964L329.969 229.671C330.543 230.1 331.093 230.559 331.547 231.158C332.411 232.312 332.918 233.963 333.097 236.073L350.044 219.116C348.46 217.547 346.699 216.142 344.671 214.964Z" fill="#293133"/>
<path d="M255.552 259.413L249.287 265.68H255.552V259.413Z" fill="#293133"/>
<path d="M217.147 253.134L204.606 265.678H211.026L217.147 253.134Z" fill="#293133"/>
<path d="M255.553 214.716L228.769 241.508V251.034L255.553 224.242V214.716Z" fill="#293133"/>
<path d="M255.553 254.038V244.512L234.393 265.679H243.916L255.553 254.038Z" fill="#293133"/>
<path d="M388.045 210.892V201.366L361.266 228.158V237.684L388.045 210.892Z" fill="#293133"/>
<path d="M361.266 198.363V207.889L384.054 185.09H374.53L361.266 198.363Z" fill="#293133"/>
<path d="M361.266 213.265V222.786L388.045 195.994V186.473L361.266 213.265Z" fill="#293133"/>
<path d="M311.7 227.672L329.105 210.262C327.16 210.059 325.162 209.919 323.052 209.919H319.924L302.176 227.672H311.7Z" fill="#293133"/>
<path d="M208.038 0.67041H238.302L206.841 41.2905L238.302 81.2588H208.038L188.223 56.3209L168.409 81.2588H138.145L169.713 41.2905L138.145 0.67041H168.409L188.223 25.7194L208.038 0.67041Z" fill="#293133"/>
<path d="M351.737 81.2588H324.63L317.119 67.4259H271.506L263.99 81.2588H236.883L280.542 0.67041H308.083L351.737 81.2588ZM294.37 25.28L281.304 49.2378H307.321L294.366 25.28H294.37Z" fill="#293133"/>
<path d="M80.58 223.918C83.1527 227.351 86.6667 229.577 91.1267 230.61C95.5818 231.638 101.673 232.155 109.391 232.155L109.652 265.861C93.014 265.861 79.8946 265.045 70.294 263.413C60.6886 261.786 52.2417 256.939 44.958 248.875C37.6646 240.812 33.7645 227.868 33.2529 210.022V162.421C33.0791 153.846 30.4244 148.226 25.279 145.565C20.1335 142.91 11.9038 141.577 0.58004 141.577H0.324219L0.58004 132.828L0.324219 124.335H0.58004C8.29815 124.335 14.3848 123.867 18.8448 122.921C23.3 121.979 26.8187 119.961 29.3914 116.876C31.9641 113.79 33.2529 109.155 33.2529 102.98V55.6341C33.7645 37.9675 37.6646 25.1002 44.958 17.0322C52.2417 8.96902 60.6886 4.1649 70.294 2.62469C79.8995 1.07964 93.014 0.307129 109.652 0.307129L109.391 33.5014C101.678 33.5014 95.5867 34.0132 91.1267 35.0464C86.6667 36.0748 83.1527 38.349 80.58 41.8639C78.0073 45.3837 76.7234 50.661 76.7234 57.6909V104.781C76.038 117.648 70.8057 127.001 61.0313 132.828C70.8105 138.661 76.038 148.1 76.7234 161.136V208.226C76.7234 215.261 78.0073 220.495 80.58 223.923" fill="#293133"/>
<path d="M219.579 96.9555C224.768 99.2054 228.793 102.344 231.665 106.375C234.532 110.402 235.966 115.071 235.966 120.368V120.802C235.966 129.517 232.988 136.253 227.036 141.004C221.085 145.755 212.956 148.135 202.651 148.135H167.705V174.164H140.814V93.5757H201.671C208.419 93.5757 214.39 94.7007 219.579 96.9555ZM205.315 128.754C207.164 128.537 208.709 127.847 209.94 126.688C211.175 125.529 211.793 123.603 211.793 120.918C211.793 118.234 211.175 116.162 209.94 114.931C208.704 113.695 207.111 112.932 205.151 112.642C203.192 112.353 200.431 112.203 196.878 112.203H193.282C191.829 112.203 189.29 112.222 185.661 112.261C182.031 112.3 176.046 112.314 167.695 112.314V129.087H196.873C200.643 129.087 203.457 128.976 205.311 128.759" fill="#293133"/>
<path d="M269.599 93.5806V143.563L314.238 93.5806H341.017V174.164H314.238V124.071L269.599 174.164H242.709V93.5806H269.599Z" fill="#293133"/>
<path d="M434.426 169.593C425.352 174.243 413.521 176.565 398.935 176.565C382.456 176.565 369.868 173.75 361.155 168.125C352.443 162.5 348.089 154.022 348.089 142.695H373.565C373.565 148.286 376.031 152.371 380.969 154.944C385.902 157.522 391.892 158.778 398.935 158.7C405.103 158.845 410.365 158.01 414.718 156.195C419.072 154.384 421.283 151.477 421.36 147.484C421.36 145.452 420.815 143.911 419.729 142.859C418.638 141.806 416.929 141.082 414.612 140.681C412.286 140.281 409.023 140.083 404.814 140.083H384.671V124.401H404.814C410.62 124.401 414.757 123.676 417.224 122.223C419.69 120.77 420.926 118.993 420.926 116.888C420.926 114.203 418.802 112.224 414.554 110.954C410.312 109.679 405.099 109.008 398.935 108.936C391.892 108.936 385.907 109.679 380.969 111.166C376.031 112.653 373.565 114.961 373.565 118.08H348.089C348.089 107.627 353.369 100.53 363.931 96.7926C374.487 93.0507 386.158 91.1821 398.93 91.1821C406.696 91.1821 413.937 91.6746 420.651 92.6547C427.365 93.6349 433.258 95.9041 438.341 99.4626C443.419 103.021 445.963 108.284 445.963 115.256C445.963 122.228 441.609 127.235 432.896 129.847C442.333 132.676 447.411 138.489 448.139 147.272V147.489C448.067 157.58 443.491 164.953 434.422 169.598" fill="#293133"/>
<path d="M560.658 141.579H560.397C549.078 141.579 540.844 142.912 535.703 145.567C530.558 148.227 527.898 153.848 527.724 162.423V210.029C527.213 227.874 523.308 240.819 516.024 248.882C508.731 256.945 500.289 261.793 490.683 263.42C481.078 265.047 467.959 265.863 451.33 265.863L451.586 232.157C459.304 232.157 465.391 231.64 469.851 230.612C474.311 229.579 477.829 227.353 480.397 223.92C482.965 220.492 484.254 215.258 484.254 208.223V161.129C484.935 148.097 490.172 138.658 499.946 132.825C490.172 126.998 484.939 117.645 484.254 104.778V57.688C484.254 50.6581 482.965 45.3808 480.397 41.861C477.825 38.3508 474.306 36.0719 469.851 35.0435C465.391 34.0151 459.304 33.4985 451.586 33.4985L451.33 0.304199C467.959 0.304199 481.078 1.07673 490.683 2.62177C500.289 4.16681 508.731 8.97092 516.024 17.0293C523.313 25.0925 527.218 37.9598 527.724 55.6263V102.972C527.724 109.148 529.013 113.778 531.581 116.868C534.159 119.953 537.668 121.976 542.128 122.913C546.583 123.859 552.674 124.328 560.392 124.328H560.653V141.569L560.658 141.579Z" fill="#293133"/>
</svg>
