<svg width="678" height="407" viewBox="0 0 678 407" fill="none" xmlns="http://www.w3.org/2000/svg">
<path d="M314.554 270.443V261.09H314.38L241.408 334.089L244.642 340.375L314.554 270.443Z" fill="#293133"/>
<path d="M309.007 261.09H299.484L270.484 290.103L261.434 308.678L309.007 261.09Z" fill="#293133"/>
<path d="M253.132 307.461L236.345 324.254L239.579 330.54L256.284 313.834L253.132 307.461Z" fill="#293133"/>
<path d="M226.372 328.855V319.333L204.029 341.679H213.552L226.372 328.855Z" fill="#293133"/>
<path d="M226.372 334.236L218.924 341.681H226.372V334.236Z" fill="#293133"/>
<path d="M323.589 266.778V276.304L338.799 261.09H329.275L323.589 266.778Z" fill="#293133"/>
<path d="M358.656 285.925H350.48V284.578L323.589 311.476V321.002L358.656 285.925Z" fill="#293133"/>
<path d="M323.589 296.578V306.099L350.48 279.201V269.68L323.589 296.578Z" fill="#293133"/>
<path d="M323.589 291.204L350.48 264.306V261.09H344.171L323.589 281.678V291.204Z" fill="#293133"/>
<path d="M350.48 314.371L323.589 341.269V341.679H332.702L350.48 323.897V314.371Z" fill="#293133"/>
<path d="M219.643 261.09H210.125L199.481 271.741V281.263L219.643 261.09Z" fill="#293133"/>
<path d="M314.553 305.616L287.769 332.408V341.678H288.02L314.553 315.138V305.616Z" fill="#293133"/>
<path d="M199.481 266.368L204.752 261.09H199.481V266.368Z" fill="#293133"/>
<path d="M323.589 261.09V261.407L323.906 261.09H323.589Z" fill="#293133"/>
<path d="M447.045 307.167L420.266 333.958V341.679H422.067L447.045 316.693V307.167Z" fill="#293133"/>
<path d="M275.591 279.621L294.116 261.09H284.617L275.591 279.621Z" fill="#293133"/>
<path d="M241.489 283.938L238.333 277.569L199.477 316.432V325.958L241.489 283.938Z" fill="#293133"/>
<path d="M231.623 264.007L230.18 261.09H225.02L199.481 286.637V296.163L231.623 264.007Z" fill="#293133"/>
<path d="M226.372 313.961V304.87L229.456 310.871L246.422 293.905L243.266 287.536L199.481 331.333V340.859L226.372 313.961Z" fill="#293133"/>
<path d="M236.556 273.972L233.404 267.604L199.477 301.536V311.058L236.556 273.972Z" fill="#293133"/>
<path d="M234.52 320.704L251.351 303.867L248.199 297.494L231.281 314.417L234.52 320.704Z" fill="#293133"/>
<path d="M281.268 318.638L287.77 305.302V312.134L314.554 285.342V275.816L248.716 341.678H258.234L281.268 318.638Z" fill="#293133"/>
<path d="M414.826 304.229C414.141 302.293 413.291 300.448 412.152 298.778C411.964 298.503 411.732 298.266 411.534 298L391.657 317.888C391.136 319.853 390.238 321.331 388.858 322.19C388.124 322.649 387.221 323.001 386.237 323.305L367.861 341.687H377.384L414.826 304.229Z" fill="#293133"/>
<path d="M378.678 303.67H378.784C381.352 303.67 383.452 303.824 385.136 304.119L400.08 289.17C397.817 288.214 395.36 287.505 392.758 286.974L376.067 303.67H378.673H378.678Z" fill="#293133"/>
<path d="M365.095 324.177C362.61 324.163 359.438 324.153 355.601 324.148L338.075 341.68H347.593L365.091 324.177H365.095Z" fill="#293133"/>
<path d="M416.221 317.733C416.356 316.628 416.452 315.512 416.452 314.349V313.914C416.452 312.007 416.245 310.216 415.946 308.487L382.785 341.662C386.661 341.619 390.257 341.165 393.607 340.359L416.221 317.738V317.733Z" fill="#293133"/>
<path d="M447.045 336.962L442.334 341.679H447.045V336.962Z" fill="#293133"/>
<path d="M412.152 328.609C412.9 327.527 413.542 326.393 414.097 325.224L402.151 337.174C406.321 334.987 409.69 332.162 412.152 328.609Z" fill="#293133"/>
<path d="M447.045 331.589V322.067L427.438 341.68H436.962L447.045 331.589Z" fill="#293133"/>
<path d="M420.266 268.989L428.158 261.09H420.266V268.989Z" fill="#293133"/>
<path d="M447.045 292.271L420.266 319.059V328.585L447.045 301.793V292.271Z" fill="#293133"/>
<path d="M379.957 324.205C379.556 324.215 379.204 324.253 378.784 324.253H375.516C374.532 324.253 372.813 324.244 370.419 324.22L352.965 341.679H362.489L379.957 324.205Z" fill="#293133"/>
<path d="M350.48 303.67H355.804L373.552 285.921H364.029L323.589 326.372V335.894L350.48 308.996V303.67Z" fill="#293133"/>
<path d="M403.671 290.964L388.969 305.671C389.543 306.1 390.093 306.559 390.547 307.158C391.411 308.312 391.918 309.963 392.097 312.073L409.044 295.116C407.46 293.547 405.699 292.142 403.671 290.964Z" fill="#293133"/>
<path d="M314.552 335.413L308.287 341.68H314.552V335.413Z" fill="#293133"/>
<path d="M276.147 329.134L263.606 341.678H270.026L276.147 329.134Z" fill="#293133"/>
<path d="M314.553 290.716L287.769 317.508V327.034L314.553 300.242V290.716Z" fill="#293133"/>
<path d="M314.553 330.038V320.512L293.393 341.679H302.916L314.553 330.038Z" fill="#293133"/>
<path d="M447.045 286.892V277.366L420.266 304.158V313.684L447.045 286.892Z" fill="#293133"/>
<path d="M420.266 274.363V283.889L443.054 261.09H433.53L420.266 274.363Z" fill="#293133"/>
<path d="M420.266 289.265V298.786L447.045 271.994V262.473L420.266 289.265Z" fill="#293133"/>
<path d="M370.7 303.672L388.105 286.262C386.16 286.059 384.162 285.919 382.052 285.919H378.924L361.176 303.672H370.7Z" fill="#293133"/>
<path d="M267.038 76.6704H297.302L265.841 117.291L297.302 157.259H267.038L247.223 132.321L227.409 157.259H197.145L228.713 117.291L197.145 76.6704H227.409L247.223 101.719L267.038 76.6704Z" fill="#293133"/>
<path d="M410.737 157.259H383.63L376.119 143.426H330.506L322.99 157.259H295.883L339.542 76.6704H367.083L410.737 157.259ZM353.37 101.28L340.304 125.238H366.321L353.366 101.28H353.37Z" fill="#293133"/>
<path d="M139.58 299.918C142.153 303.351 145.667 305.577 150.127 306.61C154.582 307.638 160.673 308.155 168.391 308.155L168.652 341.861C152.014 341.861 138.895 341.045 129.294 339.413C119.689 337.786 111.242 332.939 103.958 324.875C96.6646 316.812 92.7645 303.868 92.2529 286.022V238.421C92.0791 229.846 89.4244 224.226 84.279 221.565C79.1335 218.91 70.9038 217.577 59.58 217.577H59.3242L59.58 208.828L59.3242 200.335H59.58C67.2982 200.335 73.3848 199.867 77.8448 198.921C82.3 197.979 85.8187 195.961 88.3914 192.876C90.9641 189.79 92.2529 185.155 92.2529 178.98V131.634C92.7645 113.968 96.6646 101.1 103.958 93.0322C111.242 84.969 119.689 80.1649 129.294 78.6247C138.899 77.0796 152.014 76.3071 168.652 76.3071L168.391 109.501C160.678 109.501 154.587 110.013 150.127 111.046C145.667 112.075 142.153 114.349 139.58 117.864C137.007 121.384 135.723 126.661 135.723 133.691V180.781C135.038 193.648 129.806 203.001 120.031 208.828C129.811 214.661 135.038 224.1 135.723 237.136V284.226C135.723 291.261 137.007 296.495 139.58 299.923" fill="#293133"/>
<path d="M278.579 172.955C283.768 175.205 287.793 178.344 290.665 182.375C293.532 186.402 294.966 191.071 294.966 196.368V196.802C294.966 205.517 291.988 212.253 286.036 217.004C280.085 221.755 271.956 224.135 261.651 224.135H226.705V250.164H199.814V169.576H260.671C267.419 169.576 273.39 170.701 278.579 172.955ZM264.315 204.754C266.164 204.537 267.709 203.847 268.94 202.688C270.175 201.529 270.793 199.603 270.793 196.918C270.793 194.234 270.175 192.162 268.94 190.931C267.704 189.695 266.111 188.932 264.151 188.642C262.192 188.353 259.431 188.203 255.878 188.203H252.282C250.829 188.203 248.29 188.222 244.661 188.261C241.031 188.3 235.046 188.314 226.695 188.314V205.087H255.873C259.643 205.087 262.457 204.976 264.311 204.759" fill="#293133"/>
<path d="M328.599 169.581V219.563L373.238 169.581H400.017V250.164H373.238V200.071L328.599 250.164H301.709V169.581H328.599Z" fill="#293133"/>
<path d="M493.426 245.593C484.352 250.243 472.521 252.565 457.935 252.565C441.456 252.565 428.868 249.75 420.155 244.125C411.443 238.5 407.089 230.022 407.089 218.695H432.565C432.565 224.286 435.031 228.371 439.969 230.944C444.902 233.522 450.892 234.778 457.935 234.7C464.103 234.845 469.365 234.01 473.718 232.195C478.072 230.384 480.283 227.477 480.36 223.484C480.36 221.452 479.815 219.911 478.729 218.859C477.638 217.806 475.929 217.082 473.612 216.681C471.286 216.281 468.023 216.083 463.814 216.083H443.671V200.401H463.814C469.62 200.401 473.757 199.676 476.224 198.223C478.69 196.77 479.926 194.993 479.926 192.888C479.926 190.203 477.802 188.224 473.554 186.954C469.312 185.679 464.099 185.008 457.935 184.936C450.892 184.936 444.907 185.679 439.969 187.166C435.031 188.653 432.565 190.961 432.565 194.08H407.089C407.089 183.627 412.369 176.53 422.931 172.793C433.487 169.051 445.158 167.182 457.93 167.182C465.696 167.182 472.937 167.675 479.651 168.655C486.365 169.635 492.258 171.904 497.341 175.463C502.419 179.021 504.963 184.284 504.963 191.256C504.963 198.228 500.609 203.235 491.896 205.847C501.333 208.676 506.411 214.489 507.139 223.272V223.489C507.067 233.58 502.491 240.953 493.422 245.598" fill="#293133"/>
<path d="M619.658 217.579H619.397C608.078 217.579 599.844 218.912 594.703 221.567C589.558 224.227 586.898 229.848 586.724 238.423V286.029C586.213 303.874 582.308 316.819 575.024 324.882C567.731 332.945 559.289 337.793 549.683 339.42C540.078 341.047 526.959 341.863 510.33 341.863L510.586 308.157C518.304 308.157 524.391 307.64 528.851 306.612C533.311 305.579 536.829 303.353 539.397 299.92C541.965 296.492 543.254 291.258 543.254 284.223V237.129C543.935 224.097 549.172 214.658 558.946 208.825C549.172 202.998 543.939 193.645 543.254 180.778V133.688C543.254 126.658 541.965 121.381 539.397 117.861C536.825 114.351 533.306 112.072 528.851 111.043C524.391 110.015 518.304 109.498 510.586 109.498L510.33 76.3042C526.959 76.3042 540.078 77.0767 549.683 78.6218C559.289 80.1668 567.731 84.9709 575.024 93.0293C582.313 101.092 586.218 113.96 586.724 131.626V178.972C586.724 185.148 588.013 189.778 590.581 192.868C593.159 195.953 596.668 197.976 601.128 198.913C605.583 199.859 611.674 200.328 619.392 200.328H619.653V217.569L619.658 217.579Z" fill="#293133"/>
</svg>
