<svg width="627" height="389" viewBox="0 0 627 389" fill="none" xmlns="http://www.w3.org/2000/svg">
<path d="M108.155 314.859C111.622 319.508 116.358 322.523 122.368 323.923C128.372 325.315 136.581 326.015 146.982 326.015L147.333 371.667C124.911 371.667 107.231 370.561 94.2933 368.351C81.3488 366.147 69.9654 359.582 60.1497 348.661C50.321 337.74 45.0651 320.208 44.3756 296.039V231.567C44.1415 219.953 40.5638 212.341 33.6297 208.738C26.6956 205.141 15.605 203.336 0.344753 203.336H0L0.344753 191.487L0 179.984H0.344753C10.7459 179.984 18.9484 179.35 24.9588 178.068C30.9628 176.793 35.7048 174.059 39.1718 169.881C42.6389 165.702 44.3756 159.424 44.3756 151.06V86.9349C45.0651 63.0073 50.321 45.5798 60.1497 34.6525C69.9654 23.7317 81.3488 17.225 94.2933 15.1389C107.231 13.0463 124.911 12 147.333 12L146.982 56.9583C136.587 56.9583 128.378 57.6515 122.368 59.0509C116.358 60.4438 111.622 63.5239 108.155 68.2846C104.688 73.0518 102.958 80.1993 102.958 89.7207V153.499C102.034 170.927 94.9828 183.594 81.8106 191.487C94.9893 199.386 102.034 212.171 102.958 229.827V293.606C102.958 303.134 104.688 310.223 108.155 314.865" fill="black"/>
<path d="M626.888 203.336H626.537C611.283 203.336 600.186 205.141 593.258 208.738C586.324 212.341 582.74 219.953 582.506 231.567V296.045C581.816 320.215 576.554 337.747 566.738 348.668C556.91 359.588 545.533 366.154 532.588 368.358C519.644 370.561 501.964 371.667 479.555 371.667L479.899 326.015C490.301 326.015 498.503 325.315 504.514 323.923C510.524 322.523 515.266 319.508 518.727 314.859C522.187 310.216 523.924 303.127 523.924 293.599V229.814C524.841 212.164 531.899 199.38 545.071 191.48C531.899 183.587 524.848 170.92 523.924 153.493V89.7141C523.924 80.1928 522.187 73.0452 518.727 68.278C515.259 63.5239 510.517 60.4373 504.514 59.0444C498.503 57.6515 490.301 56.9518 479.899 56.9518L479.555 12C501.964 12 519.644 13.0463 532.588 15.1389C545.533 17.2315 556.91 23.7382 566.738 34.6525C576.561 45.5732 581.823 63.0007 582.506 86.9284V151.054C582.506 159.418 584.243 165.689 587.703 169.874C591.177 174.053 595.906 176.793 601.916 178.061C607.92 179.343 616.129 179.977 626.53 179.977H626.882V203.33L626.888 203.336Z" fill="black"/>
<path d="M273.602 70.5889C273.602 140.644 169.891 140.644 169.891 70.5889C169.891 0.67777 273.602 0.67777 273.602 70.5889ZM196.468 70.5889C196.468 107.278 247.168 107.278 247.168 70.5889C247.168 34.1889 196.468 34.1889 196.468 70.5889ZM307.917 43H283.073C283.073 35.2 283.073 27.5444 283.073 19.8889H358.184C358.184 27.5444 358.184 35.2 358.184 43H333.484V121C324.962 121 316.44 121 307.917 121V43Z" fill="black"/>
<path d="M214.379 188.889L188.668 248.111H163.391V244.356L208.891 145.7H220.013L265.657 244.356V248.111H240.379L214.379 188.889ZM339.311 198.422L288.323 248.256H279.078V147C287.889 147 296.7 147 305.511 147V196.545L356.645 146.567H366.034V248.111C357.223 248.111 348.267 248.111 339.311 248.111V198.422ZM466.889 248.111H440.6V212.867H435.4C400.3 212.867 387.589 194.956 387.589 159.422V147H414.166V159.422C414.166 176.611 415.466 188.311 435.544 188.311H440.6V147H466.889V248.111Z" fill="black"/>
<path d="M260.313 271.223V372.334C251.502 372.334 242.691 372.334 233.879 372.334V331.745H202.679V372.334C193.868 372.334 184.913 372.334 176.246 372.334V271.223C184.913 271.223 193.868 271.223 202.679 271.223V307.912H233.879V271.223C242.691 271.223 251.502 271.223 260.313 271.223ZM286.128 271.223H311.983V301.412H330.617C379.005 301.412 379.005 372.19 330.617 372.334H286.128V271.223ZM330.472 324.667H311.983V349.223C317.905 349.223 324.405 349.367 330.472 349.223C345.494 349.078 344.628 324.667 330.472 324.667ZM385.939 372.334V271.223H411.794V372.334H385.939Z" fill="black"/>
</svg>
