<svg width="79" height="48" viewBox="0 0 79 48" fill="none" xmlns="http://www.w3.org/2000/svg">
<path d="M13.4835 38.757C13.9157 39.3366 14.5061 39.7124 15.2554 39.8869C16.0039 40.0605 17.0273 40.1478 18.324 40.1478L18.3678 45.8391C15.5725 45.8391 13.3684 45.7013 11.7554 45.4257C10.1416 45.151 8.72248 44.3325 7.49877 42.971C6.27344 41.6095 5.6182 39.4238 5.53224 36.4106V28.373C5.50305 26.9251 5.05703 25.9762 4.19257 25.527C3.3281 25.0786 1.94545 24.8536 0.0429799 24.8536H0L0.0429799 23.3763L0 21.9423H0.0429799C1.33967 21.9423 2.36227 21.8632 3.11158 21.7034C3.86008 21.5445 4.45126 21.2037 4.88349 20.6827C5.31572 20.1618 5.53224 19.3791 5.53224 18.3364V10.342C5.6182 7.359 6.27344 5.18634 7.49877 3.82405C8.72248 2.46257 10.1416 1.65139 11.7554 1.39132C13.3684 1.13044 15.5725 1 18.3678 1L18.324 6.60489C17.0281 6.60489 16.0047 6.6913 15.2554 6.86577C14.5061 7.03942 13.9157 7.4234 13.4835 8.01691C13.0513 8.61123 12.8356 9.50231 12.8356 10.6893V18.6405C12.7204 20.8132 11.8414 22.3923 10.1992 23.3763C11.8422 24.3612 12.7204 25.955 12.8356 28.1562V36.1074C12.8356 37.2952 13.0513 38.1789 13.4835 38.7578" fill="black"/>
<path d="M78.153 24.8536H78.1092C76.2075 24.8536 74.8241 25.0786 73.9604 25.527C73.0959 25.9762 72.6491 26.9251 72.6199 28.373V36.4115C72.534 39.4246 71.8779 41.6103 70.6542 42.9718C69.4289 44.3333 68.0105 45.1518 66.3968 45.4266C64.783 45.7013 62.5788 45.8391 59.7852 45.8391L59.8281 40.1478C61.1248 40.1478 62.1474 40.0605 62.8967 39.8869C63.646 39.7124 64.2372 39.3366 64.6686 38.757C65.1001 38.1781 65.3166 37.2944 65.3166 36.1066V28.1545C65.4309 25.9542 66.3108 24.3603 67.953 23.3755C66.3108 22.3915 65.4317 20.8124 65.3166 18.6397V10.6885C65.3166 9.50149 65.1001 8.61041 64.6686 8.01609C64.2364 7.4234 63.6452 7.0386 62.8967 6.86495C62.1474 6.6913 61.1248 6.60407 59.8281 6.60407L59.7852 1C62.5788 1 64.783 1.13044 66.3968 1.39132C68.0105 1.6522 69.4289 2.46338 70.6542 3.82405C71.8787 5.18552 72.5348 7.35818 72.6199 10.3412V18.3356C72.6199 19.3783 72.8364 20.1601 73.2679 20.6819C73.7009 21.2029 74.2905 21.5445 75.0398 21.7026C75.7883 21.8624 76.8117 21.9415 78.1084 21.9415H78.1522V24.8528L78.153 24.8536Z" fill="black"/>
<path d="M34.1094 8.71533C34.1094 17.449 21.1799 17.449 21.1799 8.71533C21.1799 -0.000385035 34.1094 -0.000385035 34.1094 8.71533ZM24.4933 8.71533C24.4933 13.2893 30.814 13.2893 30.814 8.71533C30.814 4.17739 24.4933 4.17739 24.4933 8.71533ZM38.3875 5.27586H35.2902C35.2902 4.30345 35.2902 3.34904 35.2902 2.39463H44.6542C44.6542 3.34904 44.6542 4.30345 44.6542 5.27586H41.5749V15C40.5124 15 39.45 15 38.3875 15V5.27586Z" fill="black"/>
<path d="M26.7263 23.4635L23.5209 30.8467H20.3696V30.3785L26.042 18.0792H27.4286L33.119 30.3785V30.8467H29.9677L26.7263 23.4635ZM42.3014 24.652L35.9447 30.8647H34.7922V18.2413C35.8906 18.2413 36.9891 18.2413 38.0876 18.2413V24.4179L44.4623 18.1873H45.6328V30.8467C44.5343 30.8467 43.4178 30.8467 42.3014 30.8467V24.652ZM58.2062 30.8467H54.9288V26.4528H54.2805C49.9047 26.4528 48.32 24.2199 48.32 19.79V18.2413H51.6334V19.79C51.6334 21.9329 51.7955 23.3915 54.2985 23.3915H54.9288V18.2413H58.2062V30.8467Z" fill="black"/>
<path d="M32.4527 33.7281V46.3335C31.3542 46.3335 30.2558 46.3335 29.1573 46.3335V41.2733H25.2677V46.3335C24.1692 46.3335 23.0527 46.3335 21.9723 46.3335V33.7281C23.0527 33.7281 24.1692 33.7281 25.2677 33.7281V38.3021H29.1573V33.7281C30.2558 33.7281 31.3542 33.7281 32.4527 33.7281ZM35.671 33.7281H38.8944V37.4917H41.2174C47.2499 37.4917 47.2499 46.3155 41.2174 46.3335H35.671V33.7281ZM41.1994 40.391H38.8944V43.4523C39.6327 43.4523 40.443 43.4703 41.1994 43.4523C43.0722 43.4343 42.9641 40.391 41.1994 40.391ZM48.1143 46.3335V33.7281H51.3377V46.3335H48.1143Z" fill="black"/>
</svg>
