<svg width="67" height="32" fill="none" xmlns="http://www.w3.org/2000/svg"><path d="M30.1 22.9v-1.1l-8.6 8.6.4.7L30 23Zm-.6-1.1h-1.2L25 25.2l-1 2.2 5.6-5.6Zm-6.6 5.5-2 2 .4.7 2-2-.4-.7Zm-3.2 2.5v-1.1l-2.6 2.6h1.1l1.5-1.5Zm0 .6-.9.9h1v-.9Zm11.5-7.9v1l1.8-1.7h-1.1l-.7.7Zm4.1 2.2h-1v-.1l-3.1 3.1V29l4.1-4.2ZM31.2 26v1l3.2-3.2v-1l-3.2 3Zm0-.7 3.2-3.1v-.4h-.8l-2.4 2.4v1.1Zm3.2 2.7-3.2 3.3h1l2.2-2.1v-1.1ZM19 21.8h-1.2l-1.3 1.3v1l2.4-2.3ZM30.1 27 27 30.2v1.1l3.1-3.1V27Zm-13.6-4.6.7-.6h-.7v.6Zm14.7-.6Zm14.5 5.4-3.1 3.2v.9h.2l3-3v-1ZM25.5 24l2.2-2.2h-1.1l-1 2.2Zm-4 .5-.4-.8-4.6 4.6v1.1l5-5Zm-1.2-2.4-.1-.3h-.6l-3 3V26l3.7-3.8Zm-.6 5.9v-1l.4.7 2-2-.4-.8-5.2 5.2v1.1l3.2-3.2Zm1.3-4.7-.5-.7-4 4v1l4.4-4.3Zm-.3 5.5 2-2-.4-.7-2 2 .4.7Zm5.5-.2L27 27v.8l3.1-3.1v-1.2l-7.8 7.8h1.2l2.7-2.7ZM42 26.9l-.4-.7-2.4 2.3c0 .2-.2.4-.3.5l-.3.1-2.2 2.2h1.1l4.4-4.4Zm-4.3-.1h.7l1.8-1.7-.9-.3-2 2h.4ZM36 29.2h-1l-2.1 2.1H34l2-2Zm6.1-.7v-1.1l-4 3.9c.5 0 1 0 1.3-.2l2.7-2.6Zm3.6 2.2-.5.6h.5v-.6Zm-4.1-.9.3-.4-1.4 1.4 1.1-1Zm4.1.3V29l-2.3 2.3h1.2l1.1-1.2Zm-3.1-7.4 1-.9h-1v1Zm3.1 2.8-3.1 3.1v1.2l3.1-3.2v-1.1Zm-7.9 3.7h-1.1l-2 2.1h1l2.1-2Zm-3.4-2.4h.6l2-2h-1l-4.8 4.7v1.1l3.2-3.2v-.6Zm6.2-1.5L39 27.1l.2.1.2.6 2-2-.7-.5Zm-10.5 5.3-.7.7h.7v-.7Zm-4.5-.8L24 31.3h.8l.7-1.5Zm4.5-4.5L27 28.5v1l3.1-3v-1.2Zm0 4.7v-1.2l-2.5 2.5h1.1l1.4-1.4Zm15.6-5.2v-1l-3.1 3V28l3.1-3.2Zm-3.1-1.4v1l2.7-2.6h-1.1l-1.6 1.6Zm0 1.7v1.1l3.1-3.1V22l-3.1 3Zm-5.9 1.7 2-2h-1l-2 2h1ZM24.5 0h3.6l-3.7 4.8L28 9.5h-3.6l-2.3-2.9-2.4 3h-3.5L20 4.7 16.3 0h3.5l2.4 3 2.3-3Zm17 9.5h-3.2l-1-1.6H32l-.9 1.6H28L33.1 0h3.2l5.2 9.5ZM34.7 3l-1.5 2.9h3L34.7 3ZM9.5 26.4c.3.4.7.6 1.2.8l2.2.1v4c-2 0-3.5 0-4.6-.3a5.1 5.1 0 0 1-3-1.7c-.9-1-1.4-2.5-1.4-4.6v-5.6c0-1-.3-1.7-1-2-.6-.3-1.5-.4-2.9-.4v-2l2.2-.2c.5-.1 1-.4 1.2-.8.3-.3.5-.9.5-1.6V6.5c0-2 .5-3.6 1.4-4.5a5 5 0 0 1 3-1.7c1-.2 2.6-.3 4.6-.3v4l-2.2.1a2 2 0 0 0-1.2.8A3 3 0 0 0 9 6.8v5.5c0 1.5-.7 2.6-1.8 3.3 1.1.7 1.7 1.8 1.8 3.4v5.5c0 .9.2 1.5.5 1.9m16.4-15c.6.3 1 .6 1.4 1.1.3.5.5 1 .5 1.7a3 3 0 0 1-1 2.4c-.8.6-1.7.8-3 .8h-4v3.1h-3.2V11h7.2a4 4 0 0 1 2 .4Zm-1.7 3.8c.2 0 .4-.2.5-.3.2-.1.3-.4.3-.7a1 1 0 0 0-.3-.7 1 1 0 0 0-.5-.2 7 7 0 0 0-1-.1h-.4a100.6 100.6 0 0 0-3 0v2h4.4m7.6-4.2v5.9L37 11h3.2v9.5H37v-5.9l-5.2 6h-3.2V11h3.2Zm19.4 9c-1 .5-2.4.8-4.2.8-2 0-3.4-.3-4.4-1-1-.7-1.6-1.7-1.6-3h3c0 .7.3 1.1 1 1.4.5.3 1.2.5 2 .5s1.4-.1 1.9-.3c.5-.2.8-.6.8-1 0-.3 0-.5-.2-.6l-.6-.2-1.2-.1h-2.3v-1.9h2.3a3 3 0 0 0 1.5-.2c.3-.2.4-.4.4-.6 0-.4-.2-.6-.7-.7a7.4 7.4 0 0 0-4 0c-.6.2-.9.4-.9.8h-3c0-1.2.7-2 1.9-2.5s2.6-.7 4.1-.7c1 0 1.8 0 2.6.2a4 4 0 0 1 2 .8c.7.4 1 1 1 1.9 0 .8-.5 1.4-1.6 1.7 1.2.3 1.8 1 1.8 2 0 1.3-.5 2.1-1.6 2.7m14.9-3.3c-1.4 0-2.3.1-3 .4-.5.3-.8 1-.9 2v5.6c0 2.1-.5 3.7-1.4 4.6-.8 1-1.8 1.5-3 1.7-1 .2-2.6.3-4.6.3v-4l2.2-.1a2 2 0 0 0 1.2-.8c.3-.4.5-1 .5-1.9V19c0-1.6.7-2.7 1.9-3.4-1.2-.7-1.8-1.8-1.9-3.3V6.8a3 3 0 0 0-.5-1.9 2 2 0 0 0-1.2-.8 10 10 0 0 0-2.2-.2V0c2 0 3.5 0 4.7.3a5 5 0 0 1 3 1.7c.8 1 1.3 2.4 1.3 4.5v5.6c0 .7.2 1.3.5 1.6.3.4.7.7 1.2.8l2.2.1v2Z" fill="#293133"/></svg>