<svg width="1920" height="800" fill="none" xmlns="http://www.w3.org/2000/svg"><g clip-path="url(#a)"><g clip-path="url(#b)"><path d="M774.013 768.796c8.753 11.802 20.708 19.455 35.882 23.007 15.158 3.536 35.883 5.312 62.142 5.312L872.924 913c-56.607 0-101.243-2.805-133.907-8.416-32.68-5.594-61.419-22.261-86.2-49.983-24.814-27.722-38.083-72.226-39.824-133.58V557.362c-.591-29.482-9.623-48.804-27.129-57.951-17.506-9.13-45.506-13.712-84.033-13.712h-.87l.87-30.079-.87-29.199h.87c26.259 0 46.968-1.61 62.142-4.864 15.158-3.237 27.129-10.176 35.882-20.783 8.753-10.608 13.138-26.544 13.138-47.775v-162.78c1.741-60.739 15.01-104.978 39.824-132.717 24.781-27.722 53.52-44.239 86.2-49.534C771.681 2.656 816.317 0 872.924 0l-.887 114.125c-26.243 0-46.967 1.76-62.142 5.312-15.174 3.536-27.129 11.354-35.882 23.439-8.753 12.102-13.121 30.245-13.121 54.415v161.9c-2.332 44.239-20.134 76.393-53.389 96.429 33.271 20.053 51.057 52.506 53.389 97.326v161.9c0 24.186 4.368 42.18 13.121 53.966" fill="#fff"/></g><g clip-path="url(#c)"><path d="M1105.22 774.953c8.92 12.035 21.1 19.839 36.56 23.461 15.45 3.606 36.57 5.417 63.32 5.417L1206 922c-57.67 0-103.15-2.861-136.44-8.582-33.29-5.705-62.58-22.7-87.826-50.968-25.283-28.269-38.804-73.651-40.577-136.214V559.35c-.603-30.063-9.806-49.766-27.643-59.093-17.837-9.31-46.367-13.982-85.622-13.982h-.887l.887-30.672-.887-29.775h.887c26.756 0 47.856-1.642 63.317-4.96 15.444-3.301 27.643-10.376 36.561-21.193 8.919-10.816 13.387-27.067 13.387-48.717V184.97c1.773-61.937 15.294-107.049 40.577-135.334 25.246-28.269 54.536-45.111 87.826-50.51C1102.85-6.293 1148.33-9 1206-9l-.9 116.375c-26.74 0-47.85 1.794-63.32 5.417-15.46 3.605-27.64 11.578-36.56 23.901-8.92 12.34-13.37 30.842-13.37 55.488v165.091c-2.37 45.112-20.51 77.9-54.4 98.331 33.91 20.448 52.03 53.541 54.4 99.244v165.092c0 24.663 4.45 43.012 13.37 55.031" fill="#fff"/></g><g clip-path="url(#d)"><path d="M1324.02 952.145c13.88 18.732 32.84 30.877 56.91 36.515 24.03 5.612 56.9 8.431 98.54 8.431l1.41 183.919c-89.77 0-160.56-4.45-212.36-13.36-51.82-8.87-97.4-35.33-136.7-79.32-39.35-44-60.39-114.634-63.15-212.009V616.576c-.94-46.79-15.26-77.457-43.03-91.974-27.758-14.49-72.162-21.761-133.26-21.761H891l1.38-47.739-1.38-46.343h1.38c41.644 0 74.484-2.555 98.548-7.719 24.042-5.138 43.022-16.15 56.902-32.985 13.88-16.835 20.84-42.127 20.84-75.824V33.883c2.76-96.4 23.8-166.612 63.15-210.636 39.3-43.998 84.88-70.212 136.7-78.617 51.8-8.43 122.59-12.646 212.36-12.646l-1.41 181.129c-41.61 0-74.48 2.793-98.54 8.43-24.07 5.612-43.03 18.021-56.91 37.201-13.88 19.206-20.81 48.002-20.81 86.362v256.952c-3.69 70.212-31.93 121.244-84.66 153.044 52.76 31.826 80.97 83.332 84.66 154.466V866.52c0 38.386 6.93 66.945 20.81 85.651" fill="#fff"/></g><path fill="#fff" d="M1753 0h167v913h-167z"/><g clip-path="url(#e)"><path d="M645.017 768.796c8.753 11.802 20.709 19.455 35.883 23.007 15.158 3.536 35.882 5.312 62.141 5.312L743.928 913c-56.607 0-101.243-2.805-133.906-8.416-32.681-5.594-61.419-22.261-86.201-49.983-24.813-27.722-38.083-72.226-39.823-133.58V557.362c-.592-29.482-9.624-48.804-27.13-57.951-17.506-9.13-45.506-13.712-84.032-13.712h-.871l.871-30.079-.871-29.199h.871c26.259 0 46.967-1.61 62.141-4.864 15.158-3.237 27.13-10.176 35.883-20.783 8.753-10.608 13.138-26.544 13.138-47.775v-162.78c1.74-60.739 15.01-104.978 39.823-132.717 24.782-27.722 53.52-44.239 86.201-49.534C642.685 2.656 687.321 0 743.928 0l-.887 114.125c-26.242 0-46.967 1.76-62.141 5.312-15.174 3.536-27.13 11.354-35.883 23.439-8.753 12.102-13.121 30.245-13.121 54.415v161.9c-2.332 44.239-20.134 76.393-53.389 96.429 33.272 20.053 51.057 52.506 53.389 97.326v161.9c0 24.186 4.368 42.18 13.121 53.966" fill="#fff"/></g><g clip-path="url(#f)"><path d="M553.59 768.796c8.753 11.802 20.708 19.455 35.882 23.007 15.158 3.536 35.883 5.312 62.142 5.312L652.501 913c-56.608 0-101.243-2.805-133.907-8.416-32.68-5.594-61.419-22.261-86.2-49.983-24.814-27.722-38.083-72.226-39.824-133.58V557.362c-.591-29.482-9.624-48.804-27.13-57.951-17.506-9.13-45.506-13.712-84.032-13.712h-.87l.87-30.079-.87-29.199h.87c26.259 0 46.967-1.61 62.142-4.864 15.157-3.237 27.129-10.176 35.882-20.783 8.753-10.608 13.138-26.544 13.138-47.775v-162.78c1.741-60.739 15.01-104.978 39.824-132.717 24.781-27.722 53.52-44.239 86.2-49.534C551.258 2.656 595.893 0 652.501 0l-.887 114.125c-26.243 0-46.968 1.76-62.142 5.312-15.174 3.536-27.129 11.354-35.882 23.439-8.753 12.102-13.122 30.245-13.122 54.415v161.9c-2.332 44.239-20.133 76.393-53.388 96.429 33.271 20.053 51.056 52.506 53.388 97.326v161.9c0 24.186 4.369 42.18 13.122 53.966" fill="#fff"/></g><g clip-path="url(#g)"><path d="M238.568 672.837c6.042 8.176 14.294 13.477 24.767 15.938 10.463 2.45 24.768 3.68 42.893 3.68l.612 80.277c-39.073 0-69.882-1.944-92.427-5.83-22.557-3.876-42.394-15.421-59.499-34.625-17.127-19.204-26.286-50.033-27.488-92.535V526.371c-.408-20.423-6.642-33.808-18.725-40.145-12.084-6.324-31.41-9.498-58.003-9.498h-.6l.6-20.837-.6-20.227h.6c18.125 0 32.42-1.116 42.893-3.369 10.462-2.243 18.726-7.049 24.767-14.398 6.042-7.348 9.068-18.387 9.068-33.095V272.04c1.202-42.076 10.361-72.721 27.488-91.937 17.105-19.204 36.942-30.646 59.499-34.314 22.545-3.68 53.354-5.519 92.427-5.519l-.612 79.057c-18.114 0-32.419 1.219-42.893 3.68-10.473 2.449-18.725 7.866-24.767 16.237-6.042 8.383-9.057 20.952-9.057 37.695v112.153c-1.61 30.645-13.897 52.92-36.851 66.799 22.965 13.891 35.241 36.373 36.851 67.421v112.153c0 16.754 3.015 29.219 9.057 37.384" fill="#fff"/></g></g><defs><clipPath id="a"><path fill="#fff" d="M0 0h1920v800H0z"/></clipPath><clipPath id="b"><path fill="#fff" transform="translate(628.707)" d="M0 0h192.87v913H0z"/></clipPath><clipPath id="c"><path fill="#fff" transform="translate(897.973)" d="M0 0h192.87v913H0z"/></clipPath><clipPath id="d"><path fill="#fff" transform="translate(1090)" d="M0 0h192.87v913H0z"/></clipPath><clipPath id="e"><path fill="#fff" transform="translate(435.837)" d="M0 0h192.87v913H0z"/></clipPath><clipPath id="f"><path fill="#fff" transform="translate(242.967)" d="M0 0h192.87v913H0z"/></clipPath><clipPath id="g"><path fill="#fff" transform="translate(50.098)" d="M0 0h192.87v913H0z"/></clipPath></defs></svg>